<svg xmlns="http://www.w3.org/2000/svg" width="1280" height="760" viewBox="0 0 1280 760" role="img" aria-labelledby="title desc">
  <title id="title">Eshkol running in JupyterLab</title>
  <desc id="desc">A polished JupyterLab notebook screen showing Eshkol cells, rich output, and a connected Eshkol kernel.</desc>
  <defs>
    <linearGradient id="page" x1="0" y1="0" x2="1" y2="1">
      <stop offset="0" stop-color="#f8fafc"/>
      <stop offset="1" stop-color="#edf2f7"/>
    </linearGradient>
    <linearGradient id="topbar" x1="0" y1="0" x2="1" y2="0">
      <stop offset="0" stop-color="#f37726"/>
      <stop offset="1" stop-color="#d95f12"/>
    </linearGradient>
    <filter id="shadow" x="-8%" y="-8%" width="116%" height="124%">
      <feDropShadow dx="0" dy="16" stdDeviation="18" flood-color="#233044" flood-opacity="0.16"/>
    </filter>
  </defs>

  <rect width="1280" height="760" fill="url(#page)"/>
  <rect x="40" y="36" width="1200" height="688" rx="18" fill="#ffffff" filter="url(#shadow)"/>

  <rect x="40" y="36" width="1200" height="54" rx="18" fill="url(#topbar)"/>
  <path d="M40 72h1200v28H40z" fill="url(#topbar)"/>
  <circle cx="72" cy="63" r="7" fill="#fff" opacity="0.95"/>
  <circle cx="96" cy="63" r="7" fill="#fff" opacity="0.72"/>
  <circle cx="120" cy="63" r="7" fill="#fff" opacity="0.5"/>
  <text x="154" y="70" fill="#ffffff" font-family="Inter, -apple-system, BlinkMacSystemFont, Segoe UI, sans-serif" font-size="18" font-weight="700">JupyterLab</text>
  <rect x="1030" y="49" width="168" height="28" rx="14" fill="#fff" opacity="0.16"/>
  <circle cx="1050" cy="63" r="5" fill="#ffffff"/>
  <text x="1064" y="69" fill="#ffffff" font-family="Inter, -apple-system, BlinkMacSystemFont, Segoe UI, sans-serif" font-size="13" font-weight="700">Eshkol connected</text>

  <rect x="40" y="90" width="242" height="634" fill="#f8fafc"/>
  <rect x="281" y="90" width="1" height="634" fill="#d9dee7"/>
  <text x="70" y="132" fill="#263241" font-family="Inter, -apple-system, BlinkMacSystemFont, Segoe UI, sans-serif" font-size="14" font-weight="800">Files</text>
  <rect x="64" y="156" width="194" height="38" rx="8" fill="#e9f0f8" stroke="#d6e0ec"/>
  <circle cx="82" cy="175" r="5" fill="#f37726"/>
  <text x="96" y="181" fill="#1f2937" font-family="Inter, -apple-system, BlinkMacSystemFont, Segoe UI, sans-serif" font-size="14" font-weight="650">hello_eshkol.ipynb</text>
  <text x="82" y="226" fill="#647084" font-family="Inter, -apple-system, BlinkMacSystemFont, Segoe UI, sans-serif" font-size="14">examples</text>
  <text x="82" y="260" fill="#647084" font-family="Inter, -apple-system, BlinkMacSystemFont, Segoe UI, sans-serif" font-size="14">src/eshkol_kernel</text>
  <text x="82" y="294" fill="#647084" font-family="Inter, -apple-system, BlinkMacSystemFont, Segoe UI, sans-serif" font-size="14">tests</text>

  <rect x="314" y="124" width="880" height="558" rx="12" fill="#ffffff" stroke="#d8dee8"/>
  <rect x="314" y="124" width="880" height="52" rx="12" fill="#fbfcfe"/>
  <path d="M314 164h880v12H314z" fill="#fbfcfe"/>
  <rect x="314" y="175" width="880" height="1" fill="#d8dee8"/>
  <text x="346" y="156" fill="#202938" font-family="Inter, -apple-system, BlinkMacSystemFont, Segoe UI, sans-serif" font-size="17" font-weight="760">hello_eshkol.ipynb</text>
  <rect x="996" y="138" width="158" height="24" rx="12" fill="#e7f6ed" stroke="#c8e7d3"/>
  <circle cx="1012" cy="150" r="5" fill="#238a45"/>
  <text x="1026" y="155" fill="#196033" font-family="Inter, -apple-system, BlinkMacSystemFont, Segoe UI, sans-serif" font-size="12" font-weight="760">Kernel: Eshkol</text>

  <text x="354" y="224" fill="#172033" font-family="Inter, -apple-system, BlinkMacSystemFont, Segoe UI, sans-serif" font-size="31" font-weight="800">Hello Eshkol</text>
  <text x="354" y="256" fill="#667085" font-family="Inter, -apple-system, BlinkMacSystemFont, Segoe UI, sans-serif" font-size="15">Stateful Eshkol code running through a standard Jupyter kernel.</text>

  <g font-family="SFMono-Regular, Menlo, Consolas, monospace" font-size="15">
    <rect x="354" y="292" width="792" height="74" rx="8" fill="#f6f8fb" stroke="#d9e0ea"/>
    <rect x="354" y="292" width="78" height="74" rx="8" fill="#eef3f8"/>
    <path d="M426 292h8v74h-8z" fill="#f6f8fb"/>
    <text x="374" y="336" fill="#667085">In [1]</text>
    <text x="456" y="336" fill="#111827">(+ 1 2 3)</text>
    <rect x="432" y="378" width="714" height="42" rx="8" fill="#ffffff" stroke="#e0e6ef"/>
    <text x="456" y="405" fill="#111827">6</text>

    <rect x="354" y="448" width="792" height="102" rx="8" fill="#f6f8fb" stroke="#d9e0ea"/>
    <rect x="354" y="448" width="78" height="102" rx="8" fill="#eef3f8"/>
    <path d="M426 448h8v102h-8z" fill="#f6f8fb"/>
    <text x="374" y="506" fill="#667085">In [2]</text>
    <text x="456" y="486" fill="#111827">(define x 41)</text>
    <text x="456" y="516" fill="#111827">(+ x 1)</text>
    <rect x="432" y="562" width="714" height="42" rx="8" fill="#ffffff" stroke="#e0e6ef"/>
    <text x="456" y="589" fill="#111827">42</text>
  </g>

  <rect x="878" y="562" width="228" height="42" rx="8" fill="#eaf6ef" stroke="#cbe8d4"/>
  <text x="904" y="589" fill="#176534" font-family="Inter, -apple-system, BlinkMacSystemFont, Segoe UI, sans-serif" font-size="14" font-weight="760">state persisted across cells</text>

  <rect x="354" y="628" width="792" height="1" fill="#e1e7ef"/>
  <text x="354" y="654" fill="#8a94a6" font-family="Inter, -apple-system, BlinkMacSystemFont, Segoe UI, sans-serif" font-size="13">Ready - Python package: eshkol-kernel - Runtime: eshkol-repl</text>
</svg>
